<svg xmlns="http://www.w3.org/2000/svg" viewBox="0 0 100 100">
  <defs>
    <linearGradient id="redGrad" x1="0%" y1="0%" x2="100%" y2="100%">
      <stop offset="0%" stop-color="#FF3333" />
      <stop offset="100%" stop-color="#990000" />
    </linearGradient>
  </defs>
  <rect width="100" height="100" rx="22" fill="url(#redGrad)"/>
  <path d="M72 28 C67 23, 59 23, 54 28 C50 32, 50 38, 53 42 L25 70 C23 72, 23 76, 25 78 C27 80, 31 80, 33 78 L61 50 C65 53, 71 53, 75 49 C80 44, 80 36, 75 31 Z M68 39 C66 41, 62 41, 60 39 C58 37, 58 33, 60 31 C62 29, 66 29, 68 31 C70 33, 70 37, 68 39 Z" fill="#FFFFFF"/>
</svg>
